<svg xmlns="http://www.w3.org/2000/svg" viewBox="0 0 57.33098 58.135" width="314.033402243" height="318.437463295"><title>nma</title><path d="M24.187.006H22.034V1.538h2.153ZM2.532,5.641a1.74189,1.74189,0,0,1,.345-1.3,1.309,1.309,0,0,1,1.005-.429,1.11584,1.11584,0,0,1,.96.466,2.28906,2.28906,0,0,1,.247,1.391V9.89H7.241V4.975c0-1.795-.983-2.866-2.631-2.866a2.663,2.663,0,0,0-2.058.954l-.083.077V2.33H.381V9.89H2.532Zm9.921-.584-1.22.206C9.1,5.61,8.23,6.331,8.23,7.751c0,1.423,1.088,2.343,2.772,2.343a2.93147,2.93147,0,0,0,2.157-.796l.059-.05.02.075c.026.091.042.158.056.216.03.113.05.191.105.349h2.172c-.22-.341-.242-.501-.242-1.267V5.102a2.58527,2.58527,0,0,0-.746-2.197,3.88486,3.88486,0,0,0-2.613-.78c-2.088,0-3.18.823-3.34,2.516h1.917c.111-.608.572-.904,1.406-.904.755,0,1.224.286,1.224.747,0,.385-.267.501-.724.573m.786,1.161L13.233,7.49a1.80636,1.80636,0,0,1-1.692.993c-.746,0-1.191-.323-1.191-.86,0-.481.357-.77,1.195-.969l.809-.173a4.29806,4.29806,0,0,0,.816-.236Zm3.859,1.231c0,1.175.089,1.576.431,1.949.326.358.806.49,1.772.49h1.328V8.292h-.758c-.583,0-.621-.17-.621-1.35V3.912h1.379V2.425H19.25V0H17.098V2.425H16.02V3.912h1.078Zm7.089-5.036H22.034V9.888h2.153ZM46.76,33.389h2.152V25.912H46.76Zm2.152-9.883H46.76v1.532h2.152Zm-19.7-13.412a3.84776,3.84776,0,0,0,4.026-3.93,3.81689,3.81689,0,0,0-4.026-4.038,3.8194,3.8194,0,0,0-4.008,3.976,3.82667,3.82667,0,0,0,4.008,3.992m0-6.277c1.198,0,1.858.827,1.858,2.332,0,1.412-.689,2.254-1.842,2.254-1.179,0-1.856-.838-1.856-2.301,0-1.452.67-2.285,1.84-2.285m7.157,1.824a1.71582,1.71582,0,0,1,.346-1.3,1.3093,1.3093,0,0,1,1.003-.429,1.11949,1.11949,0,0,1,.962.466,2.29452,2.29452,0,0,1,.245,1.391V9.89h2.153V4.975c0-1.795-.983-2.866-2.63-2.866a2.66428,2.66428,0,0,0-2.058.954l-.082.077V2.33h-2.09V9.89h2.151Zm10.102-.584-1.221.206c-2.133.347-3.002,1.068-3.002,2.488,0,1.423,1.089,2.343,2.772,2.343a2.9263,2.9263,0,0,0,2.156-.796l.059-.05.019.075c.027.091.044.158.059.216.031.113.049.191.105.349h2.17c-.218-.341-.242-.501-.242-1.267V5.102a2.58491,2.58491,0,0,0-.744-2.197,3.89592,3.89592,0,0,0-2.615-.78c-2.088,0-3.18.823-3.339,2.516h1.918c.11-.608.572-.904,1.403-.904.755,0,1.224.286,1.224.747,0,.385-.264.501-.722.573m.786,1.161L47.252,7.49a1.80636,1.80636,0,0,1-1.692.993c-.746,0-1.192-.323-1.192-.86,0-.481.357-.77,1.197-.969l.807-.173a4.20226,4.20226,0,0,0,.816-.236ZM53.01.006H50.858V9.889H53.01ZM2.532,17.233c0-1.19.378-1.745,1.191-1.745.823,0,1.191.538,1.191,1.745v4.168H7.065V17.233c0-1.207.369-1.745,1.192-1.745.814,0,1.176.538,1.176,1.745v4.168h2.152v-5.04a2.773,2.773,0,0,0-.59-2.026,2.55119,2.55119,0,0,0-1.866-.697,2.74039,2.74039,0,0,0-2.34,1.219l-.047.055-.035-.065a2.16246,2.16246,0,0,0-2.08-1.209,2.30617,2.30617,0,0,0-2.07,1.107l-.087.109v-1.01H.381v7.557H2.532Zm15.1,3.349.091-.127v.946h2.041V13.843H17.611v4.263c0,.783-.033.956-.247,1.236a1.2124,1.2124,0,0,1-1.007.462,1.22993,1.22993,0,0,1-1.023-.463c-.223-.292-.248-.509-.248-1.235V13.843H12.935v4.754a2.82906,2.82906,0,0,0,.715,2.231,2.77666,2.77666,0,0,0,1.993.779,2.13551,2.13551,0,0,0,1.989-1.025m6.775-.508c-.912,0-1.406-.338-1.547-1.062H20.846c.149,1.649,1.427,2.595,3.514,2.595,2.091,0,3.389-.99,3.389-2.583a2.10257,2.10257,0,0,0-.554-1.501,3.0314,3.0314,0,0,0-1.72-.731l-1.411-.302c-.739-.164-.975-.318-.975-.635,0-.41.453-.685,1.128-.685.754,0,1.229.309,1.341.873h2.011c-.223-1.552-1.392-2.405-3.304-2.405-2.013,0-3.215.905-3.215,2.422,0,1.193.641,1.798,2.29,2.155l1.396.318c.536.127.895.303.895.746,0,.483-.48.795-1.224.795m11.698-.808H33.916a1.47962,1.47962,0,0,1-1.359.681,1.70026,1.70026,0,0,1-1.778-1.659l-.006-.057h5.445a6.091,6.091,0,0,0-.377-2.372,3.39238,3.39238,0,0,0-3.363-2.221,3.76085,3.76085,0,0,0-3.866,3.992,3.72131,3.72131,0,0,0,3.882,3.977,3.57883,3.57883,0,0,0,3.611-2.341m-5.308-2.58a1.5959,1.5959,0,0,1,1.665-1.435,1.43939,1.43939,0,0,1,1.541,1.438l.005.056H30.785Zm8.868,2.655c-.211-.277-.248-.461-.248-1.235V13.843H37.266v4.754a2.83747,2.83747,0,0,0,.714,2.231,2.77806,2.77806,0,0,0,1.995.779,2.13948,2.13948,0,0,0,1.989-1.025l.09-.127v.946h2.04V13.843H41.942v4.263c0,.782-.034.956-.246,1.236a1.21766,1.21766,0,0,1-1.009.462,1.23186,1.23186,0,0,1-1.022-.463m8.221-4.596-.088.109v-1.01H45.709v7.557h2.153V17.233c0-1.19.379-1.745,1.192-1.745.823,0,1.191.538,1.191,1.745v4.168h2.151V17.233c0-1.207.368-1.745,1.19-1.745.814,0,1.177.538,1.177,1.745v4.168h2.151v-5.04a2.77459,2.77459,0,0,0-.589-2.026,2.54479,2.54479,0,0,0-1.866-.697,2.76992,2.76992,0,0,0-2.34,1.219l-.048.055-.033-.065a2.16485,2.16485,0,0,0-2.081-1.209,2.31078,2.31078,0,0,0-2.071,1.107M2.772,33.594a2.92923,2.92923,0,0,0,2.156-.796l.059-.05.02.074c.027.091.044.16.059.218.029.112.05.19.103.347H7.34c-.218-.339-.242-.502-.242-1.265v-3.52a2.58884,2.58884,0,0,0-.744-2.198,3.906,3.906,0,0,0-2.616-.78c-2.087,0-3.18.823-3.337,2.516H2.318c.111-.608.572-.905,1.405-.905.754,0,1.223.288,1.223.749,0,.385-.266.501-.725.572l-1.22.207C.869,29.11,0,29.831,0,31.25c0,1.402,1.114,2.344,2.772,2.344m.543-3.439.81-.174a4.40358,4.40358,0,0,0,.817-.235l.067-.028L5.003,30.99a1.80315,1.80315,0,0,1-1.691.991c-.748,0-1.193-.321-1.193-.857,0-.483.358-.771,1.196-.969m11.983,3.233V25.831H13.147v4.261c0,.785-.036.956-.25,1.236a1.20984,1.20984,0,0,1-1.005.464,1.237,1.237,0,0,1-1.025-.466c-.221-.29-.246-.507-.246-1.234V25.831H8.47v4.752a2.83975,2.83975,0,0,0,.714,2.234,2.78924,2.78924,0,0,0,1.994.777,2.13481,2.13481,0,0,0,1.988-1.026l.092-.128v.948Zm4.568-1.327c-.914,0-1.407-.338-1.546-1.063H16.306c.149,1.651,1.426,2.596,3.512,2.596,2.092,0,3.39-.988,3.39-2.582a2.06384,2.06384,0,0,0-.554-1.501,3.027,3.027,0,0,0-1.72-.733l-1.411-.301c-.737-.165-.974-.319-.974-.637,0-.408.453-.683,1.127-.683.753,0,1.23.311,1.341.872h2.01c-.224-1.551-1.394-2.405-3.302-2.405-2.016,0-3.218.905-3.218,2.423,0,1.193.642,1.798,2.292,2.156l1.396.316c.537.128.895.304.895.748,0,.49-.47.794-1.224.794m8.45-4.65V25.926h-1.38V23.5h-2.15v2.426H23.707v1.485h1.079v3.538c0,1.174.088,1.575.431,1.948.327.358.806.491,1.77.491h1.329V31.791h-.759c-.581,0-.621-.17-.621-1.35v-3.03Zm1.405-1.58v7.557h2.152V31.282a7.0429,7.0429,0,0,1,.306-2.716,1.79167,1.79167,0,0,1,1.71-.949,3.8914,3.8914,0,0,1,.521.026V25.624h-.052c-1.528,0-2.065.33-2.498,1.536l-.097-.018.061-1.311Zm9.12,2.725-1.221.207c-2.133.347-3.002,1.069-3.002,2.487,0,1.402,1.115,2.344,2.773,2.344a2.921,2.921,0,0,0,2.155-.796l.06-.051.02.075c.024.09.042.156.057.213a3.42531,3.42531,0,0,0,.107.352h2.169c-.218-.339-.242-.502-.242-1.265v-3.52a2.5918,2.5918,0,0,0-.744-2.198,3.90308,3.90308,0,0,0-2.615-.78c-2.088,0-3.181.823-3.338,2.516h1.916c.111-.608.572-.905,1.405-.905.754,0,1.224.288,1.224.749,0,.385-.266.501-.724.572m.786,1.162-.006,1.272a1.80174,1.80174,0,0,1-1.69.991c-.748,0-1.193-.321-1.193-.857,0-.483.358-.771,1.196-.969l.811-.174a4.41218,4.41218,0,0,0,.815-.235Zm3.506,3.669h2.151V23.504H43.133Zm13.211-6.983a3.90308,3.90308,0,0,0-2.615-.78c-2.087,0-3.179.823-3.339,2.516h1.917c.113-.608.573-.905,1.406-.905.754,0,1.223.288,1.223.749,0,.385-.264.501-.724.572l-1.22.207c-2.131.347-3.002,1.068-3.002,2.487,0,1.402,1.113,2.344,2.771,2.344a2.93151,2.93151,0,0,0,2.157-.796l.059-.05.022.074c.025.091.041.158.057.216.031.113.049.191.105.349h2.17c-.219-.34-.243-.502-.243-1.265v-3.52a2.58589,2.58589,0,0,0-.744-2.198M54.993,30.99a1.80368,1.80368,0,0,1-1.692.991c-.747,0-1.193-.321-1.193-.857,0-.483.358-.771,1.198-.969l.809-.174a4.41763,4.41763,0,0,0,.817-.235l.069-.028ZM20.89,44.092v-6.24H.349v5.817H15.073V58.135L29.54,43.669H57.107V37.852H27.13Z"/></svg>