<svg xmlns="http://www.w3.org/2000/svg" viewBox="0 0 40 40" fill="none">
  <!-- Map body -->
  <rect x="4" y="7" width="26" height="24" rx="2.5" fill="#FCF7E5" stroke="#1A1612" stroke-width="2"/>
  <!-- Fold corner -->
  <path d="M23 6 L31 6 L31 16 L23 6 Z" fill="#EE7BA8" stroke="none"/>
  <!-- Grid lines -->
  <line x1="4" y1="19" x2="30" y2="19" stroke="#1A1612" stroke-width="1" stroke-opacity="0.2"/>
  <line x1="4" y1="25" x2="30" y2="25" stroke="#1A1612" stroke-width="1" stroke-opacity="0.2"/>
  <line x1="13" y1="7" x2="13" y2="31" stroke="#1A1612" stroke-width="1" stroke-opacity="0.2"/>
  <line x1="21" y1="7" x2="21" y2="31" stroke="#1A1612" stroke-width="1" stroke-opacity="0.2"/>
  <!-- Mini pin on map -->
  <path d="M13 14 C 11.3 14, 10 15.5, 10 17.2 C 10 19.5, 13 23, 13 23 C 13 23, 16 19.5, 16 17.2 C 16 15.5, 14.7 14, 13 14 Z"
        fill="#E54B3C" stroke="#1A1612" stroke-width="1.5" stroke-linejoin="round"/>
  <circle cx="13" cy="17.2" r="1.3" fill="#1A1612"/>
  <!-- Trail dots -->
  <circle cx="20" cy="23" r="1.2" fill="#1A1612" opacity="0.4"/>
  <circle cx="23" cy="20" r="1.2" fill="#1A1612" opacity="0.4"/>
  <circle cx="25" cy="23" r="1.2" fill="#1A1612" opacity="0.4"/>
</svg>
