<svg viewBox="0 0 40 40" fill="none" xmlns="http://www.w3.org/2000/svg">
  <path d="M14 8 Q13 6 14 4" stroke="#1A1612" stroke-width="1.3" stroke-linecap="round"/>
  <path d="M20 7 Q19 5 20 3" stroke="#1A1612" stroke-width="1.3" stroke-linecap="round"/>
  <path d="M26 8 Q25 6 26 4" stroke="#1A1612" stroke-width="1.3" stroke-linecap="round"/>
  <path d="M9 14 L11 35 Q11 37 13 37 L27 37 Q29 37 29 35 L31 14 Z" fill="#FCF7E5" stroke="#1A1612" stroke-width="1.8" stroke-linejoin="round"/>
  <path d="M29 20 Q37 20 37 27 Q37 34 29 34" fill="none" stroke="#1A1612" stroke-width="1.6" stroke-linecap="round"/>
  <ellipse cx="20" cy="14" rx="11" ry="2.5" fill="#1A1612"/>
  <ellipse cx="20" cy="14" rx="9.5" ry="2" fill="#2C1810"/>
  <path d="M15 14 Q17.5 11.5 20 14 Q17.5 16.5 15 14 Z" fill="rgba(252,247,229,0.2)"/>
</svg>
